<?xml version="1.0" standalone="no"?>
<!DOCTYPE svg PUBLIC "-//W3C//DTD SVG 20010904//EN"
 "http://www.w3.org/TR/2001/REC-SVG-20010904/DTD/svg10.dtd">
<svg version="1.0" xmlns="http://www.w3.org/2000/svg"
 width="600.000000pt" height="600.000000pt" viewBox="0 0 600.000000 600.000000"
 preserveAspectRatio="xMidYMid meet">
<metadata>
Created by potrace 1.14, written by Peter Selinger 2001-2017
</metadata>
<g transform="translate(0.000000,600.000000) scale(0.100000,-0.100000)"
fill="#000000" stroke="none">
<path d="M0 3000 l0 -3000 1456 0 c1164 0 1454 3 1446 13 -15 18 10 38 26 20
8 -8 9 -13 2 -13 -5 0 -10 -4 -10 -10 0 -7 520 -10 1540 -10 l1540 0 0 3000 0
3000 -3000 0 -3000 0 0 -3000z m480 2691 c0 -40 0 -40 43 -43 34 -2 42 -7 42
-23 0 -16 -8 -21 -42 -23 -43 -3 -43 -3 -43 -43 0 -32 -3 -39 -20 -39 -17 0
-20 7 -20 39 0 40 0 40 -42 43 -35 2 -43 7 -43 23 0 16 8 21 43 23 42 3 42 3
42 43 0 32 3 39 20 39 17 0 20 -7 20 -39z m5330 4 c0 -18 5 -25 20 -25 11 0
20 -4 20 -10 0 -5 -9 -10 -20 -10 -13 0 -20 -7 -20 -20 0 -11 -4 -20 -10 -20
-5 0 -10 9 -10 20 0 13 -7 20 -20 20 -11 0 -20 5 -20 10 0 6 9 10 20 10 15 0
20 7 20 25 0 14 5 25 10 25 6 0 10 -11 10 -25z m-5040 -725 c0 -13 7 -20 20
-20 11 0 20 -4 20 -10 0 -5 -9 -10 -20 -10 -13 0 -20 -7 -20 -20 0 -11 -4 -20
-10 -20 -5 0 -10 9 -10 20 0 13 -7 20 -20 20 -11 0 -20 5 -20 10 0 6 9 10 20
10 13 0 20 7 20 20 0 11 5 20 10 20 6 0 10 -9 10 -20z m4477 -44 c-8 -9 -15
-10 -23 -2 -15 15 6 38 23 24 9 -7 9 -13 0 -22z m-2991 -722 c-7 -7 -14 -8
-22 0 -7 7 -8 14 0 22 7 7 14 8 22 0 7 -7 8 -14 0 -22z m2619 -101 c91 -29
105 -39 105 -81 0 -20 -3 -60 -6 -88 l-7 -52 -48 25 c-94 46 -211 48 -297 4
-93 -48 -123 -158 -71 -263 52 -103 207 -146 350 -97 33 12 62 19 64 17 2 -2
1 -47 -2 -101 l-6 -97 -36 -11 c-55 -17 -210 -23 -272 -10 -223 46 -372 251
-338 463 25 156 160 282 329 308 69 10 170 3 235 -17z m-2662 -4 c86 -28 90
-33 76 -100 -6 -30 -19 -65 -28 -78 l-17 -22 -49 22 c-140 61 -332 2 -381
-117 -18 -43 -18 -125 0 -168 39 -94 182 -131 327 -86 35 10 65 17 67 15 2 -2
-4 -45 -15 -97 l-18 -93 -40 -14 c-58 -20 -207 -26 -274 -11 -114 25 -207 94
-253 188 -20 41 -23 62 -23 157 1 105 2 113 34 174 56 108 158 193 279 232 83
26 233 25 315 -2z m669 1 c106 -32 175 -90 225 -185 36 -67 44 -206 18 -286
-35 -108 -103 -188 -205 -239 -70 -36 -137 -50 -235 -50 -194 0 -334 70 -406
202 -33 61 -34 66 -34 173 1 132 16 173 100 263 56 60 129 104 212 127 77 21
249 19 325 -5z m-1266 -7 c-4 -16 -46 -206 -122 -553 -14 -63 -30 -132 -35
-152 l-10 -38 -104 0 c-82 0 -105 3 -105 14 0 11 137 608 165 719 l7 27 105 0
c95 0 104 -2 99 -17z m1942 -140 c60 -87 134 -195 163 -240 29 -45 54 -81 55
-80 2 2 44 448 44 468 0 5 47 9 105 9 89 0 105 -2 105 -16 0 -8 -4 -68 -10
-132 -5 -64 -16 -207 -25 -317 -8 -110 -18 -221 -21 -247 l-6 -48 -117 0 -117
0 -25 38 c-14 20 -81 120 -150 222 -68 102 -131 200 -138 218 -15 37 -30 43
-24 10 2 -13 -7 -125 -21 -250 -15 -125 -26 -230 -26 -233 0 -3 -50 -5 -110
-5 l-110 0 5 38 c7 51 51 407 72 580 l17 142 112 0 113 0 109 -157z m738 125
c-3 -18 -8 -89 -11 -158 -4 -69 -8 -143 -10 -165 -2 -22 -6 -96 -9 -165 -4
-69 -9 -151 -12 -182 l-6 -58 -103 0 c-57 0 -106 3 -108 8 -2 4 1 84 9 177 7
94 18 251 24 350 6 99 14 190 16 203 4 21 8 22 110 22 l105 0 -5 -32z m-1351
-801 l50 -13 6 -175 c3 -96 4 -176 3 -178 -2 -2 -16 6 -33 18 -126 90 -286 80
-346 -22 -85 -147 1 -299 170 -300 65 0 150 30 181 64 9 10 21 19 25 19 5 0 6
-35 3 -77 -7 -100 1 -88 71 110 29 83 85 242 124 351 39 110 71 201 71 203 0
2 90 2 201 1 l201 -3 171 -407 c94 -224 172 -406 174 -405 1 1 -2 67 -7 147
-5 80 -14 242 -20 360 -6 118 -13 237 -16 264 l-6 48 268 -5 c215 -3 282 -8
334 -22 142 -39 271 -126 327 -223 14 -23 27 -41 29 -39 3 2 -2 62 -11 133 -8
71 -15 135 -15 142 0 9 73 12 334 12 l334 0 5 -22 c3 -13 11 -61 17 -108 6
-47 13 -95 15 -107 l5 -23 -155 0 -156 0 3 -42 3 -43 142 -3 c138 -2 143 -3
147 -25 14 -63 34 -222 30 -229 -3 -4 -68 -8 -146 -8 l-140 0 6 -31 c3 -17 6
-38 6 -45 0 -11 32 -14 165 -14 190 0 167 16 185 -130 6 -47 13 -100 17 -117
l5 -33 -356 0 c-276 0 -358 3 -361 13 -2 6 -10 73 -18 147 l-13 135 -28 -58
c-58 -120 -179 -204 -326 -227 -50 -7 -218 -10 -509 -8 l-435 3 -20 63 -20 62
-141 0 -141 0 -13 -64 -13 -64 -231 -6 c-128 -4 -278 -9 -334 -12 -76 -4 -119
-1 -165 11 -227 57 -347 194 -383 438 l-6 38 -30 -25 c-16 -14 -48 -31 -69
-37 -45 -14 -48 -19 -21 -36 16 -10 241 -352 241 -367 0 -4 -98 -5 -217 -4
l-217 3 -67 154 c-38 84 -70 156 -73 158 -2 2 -7 -40 -10 -94 -4 -54 -9 -126
-12 -160 l-6 -63 -348 0 c-392 0 -353 -9 -366 83 l-6 47 -142 0 -142 0 -20
-62 -20 -63 -202 -3 c-111 -1 -202 0 -202 3 0 3 109 223 243 490 l242 485 199
-2 199 -3 58 -210 c117 -422 153 -548 155 -539 2 5 10 95 19 199 9 105 23 261
31 348 8 86 14 169 14 183 l0 26 293 -4 c237 -4 300 -7 334 -20 99 -39 167
-108 193 -196 l13 -42 25 38 c79 119 214 207 362 236 44 8 233 -3 285 -17z
m-2175 -3137 c0 -13 7 -20 19 -20 11 0 23 -4 26 -10 4 -6 -5 -10 -19 -10 -21
0 -26 -5 -26 -25 0 -14 -4 -25 -10 -25 -5 0 -10 11 -10 25 0 18 -5 25 -20 25
-11 0 -20 5 -20 10 0 6 9 10 20 10 13 0 20 7 20 20 0 11 5 20 10 20 6 0 10 -9
10 -20z"/>
<path d="M2637 3940 c-76 -19 -139 -68 -163 -126 -18 -43 -18 -137 0 -173 22
-41 80 -88 123 -100 122 -34 251 9 303 101 19 33 22 51 18 112 -3 62 -8 79
-32 111 -49 63 -160 97 -249 75z"/>
<path d="M1776 2974 c-3 -26 -6 -62 -6 -80 0 -33 1 -34 43 -34 73 0 120 54 97
111 -13 31 -48 49 -94 49 -32 0 -34 -2 -40 -46z"/>
<path d="M4360 2987 c-5 -6 0 -114 15 -291 l8 -88 52 6 c102 12 153 51 171
129 18 83 -36 193 -108 222 -44 17 -129 31 -138 22z"/>
<path d="M915 2923 c-3 -20 -24 -82 -46 -137 -21 -56 -39 -104 -39 -108 0 -5
31 -8 70 -8 l70 0 -5 28 c-16 92 -25 164 -25 210 0 60 -15 69 -25 15z"/>
<path d="M3476 2913 c-4 -26 -15 -79 -25 -118 -10 -38 -21 -82 -25 -97 l-6
-28 71 0 c69 0 71 1 65 23 -3 12 -20 76 -37 142 -18 66 -33 121 -34 123 -1 2
-6 -19 -9 -45z"/>
</g>
</svg>
